<svg xmlns="http://www.w3.org/2000/svg" width="153.715" height="84.74" viewBox="0 0 153.715 84.74">
  <g id="logo" transform="translate(-203.364 -222.347)">
    <path id="Path_67297" data-name="Path 67297" d="M203.364,247.275l12.115.285q0,.927-.035,2.174t-.071,2.6q-.036,1.355-.107,2.6t-.071,2.174q-.144,3.279-.178,7.233t-.178,7.233l11.26-1.14q0-1.352.035-2.993t.071-3.314q.035-1.674.071-3.314t.035-2.994v-5.416q0-1.639.036-3.1a5.444,5.444,0,0,1,.249-1.888l11.616.213-2.138,53.662-10.262.142q0-5.345.036-11.01t.106-11.295l-11.188,1q0,2.993-.036,5.238t-.035,5.238v2.316q0,1.532-.035,3.206t-.071,3.207a14.5,14.5,0,0,1-.178,2.245H203.934Z" transform="translate(0 -12.377)"/>
    <path id="Path_67298" data-name="Path 67298" d="M301.75,300.967a17.779,17.779,0,0,1-15.072-7.59,26.143,26.143,0,0,1-3.955-8.658,42.917,42.917,0,0,1-1.354-11.117,45.431,45.431,0,0,1,1.211-10.618,27,27,0,0,1,3.777-8.872,18.959,18.959,0,0,1,6.592-6.057,19.534,19.534,0,0,1,9.656-2.245,20.4,20.4,0,0,1,8.516,1.639,11.771,11.771,0,0,1,5.238,4.2l.071-.071a29.743,29.743,0,0,1,2.422,3.456,23.081,23.081,0,0,1,2,4.347,30.893,30.893,0,0,1,1.319,5.558,47.88,47.88,0,0,1,.463,7.02,46.173,46.173,0,0,1-1.426,11.9,28.7,28.7,0,0,1-4.1,9.158,18.644,18.644,0,0,1-6.556,5.879A18.455,18.455,0,0,1,301.75,300.967Zm-8.837-26.51q0,9.123,2.708,13.933t7.126,4.81a7.484,7.484,0,0,0,4.561-1.532,12.458,12.458,0,0,0,3.528-4.312,25.017,25.017,0,0,0,2.245-6.556,40.769,40.769,0,0,0,.784-8.267,33.229,33.229,0,0,0-.962-8.516,25.9,25.9,0,0,0-2.743-6.592,28.445,28.445,0,0,0-1.978-2.387,6.32,6.32,0,0,0-1.728-1.39,4.517,4.517,0,0,0-1.71-.606,11.363,11.363,0,0,0-1.212-.106,6.661,6.661,0,0,0-4.382,1.639,13.311,13.311,0,0,0-3.35,4.525,27.643,27.643,0,0,0-2.138,6.806A45.632,45.632,0,0,0,292.913,274.457Z" transform="translate(-40.093 -11.624)"/>
    <path id="Path_67299" data-name="Path 67299" d="M389.579,300.967a17.779,17.779,0,0,1-15.072-7.59,26.132,26.132,0,0,1-3.955-8.658A42.915,42.915,0,0,1,369.2,273.6a45.432,45.432,0,0,1,1.211-10.618,27,27,0,0,1,3.777-8.872,18.957,18.957,0,0,1,6.592-6.057,19.531,19.531,0,0,1,9.656-2.245,20.4,20.4,0,0,1,8.516,1.639,11.771,11.771,0,0,1,5.238,4.2l.071-.071a29.8,29.8,0,0,1,2.423,3.456,23.111,23.111,0,0,1,2,4.347A30.893,30.893,0,0,1,410,264.943a47.881,47.881,0,0,1,.463,7.02,46.217,46.217,0,0,1-1.425,11.9,28.706,28.706,0,0,1-4.1,9.158,18.645,18.645,0,0,1-6.556,5.879A18.456,18.456,0,0,1,389.579,300.967Zm-8.836-26.51q0,9.123,2.708,13.933t7.127,4.81a7.486,7.486,0,0,0,4.561-1.532,12.464,12.464,0,0,0,3.528-4.312,25.017,25.017,0,0,0,2.244-6.556,40.767,40.767,0,0,0,.784-8.267,33.254,33.254,0,0,0-.962-8.516,25.92,25.92,0,0,0-2.744-6.592,20.24,20.24,0,0,0-1.983-2.42,11.153,11.153,0,0,0-1.723-1.358,4.517,4.517,0,0,0-1.71-.606,11.363,11.363,0,0,0-1.212-.106,6.662,6.662,0,0,0-4.382,1.639,13.3,13.3,0,0,0-3.349,4.525,27.642,27.642,0,0,0-2.138,6.806A45.674,45.674,0,0,0,380.742,274.457Z" transform="translate(-85.235 -11.624)"/>
    <path id="Path_67300" data-name="Path 67300" d="M485.949,247.861V256.7q-.642,0-3.136-.035t-5.915-.178v.926q-.286,8.409-.392,16.747T476.4,290.9q0,2.709.036,5.487t.035,5.488l-11.117.213-.712-45.894q-3.849-.141-6.663-.177t-3.6-.036l-.285-7.91Z" transform="translate(-128.87 -12.678)"/>
    <path id="Path_67301" data-name="Path 67301" d="M327.471,291.861c0,2.61-3.912,6.766-5.26,8.121a.634.634,0,0,1-.9,0c-1.348-1.355-5.259-5.512-5.259-8.121a5.71,5.71,0,0,1,11.419,0Z" transform="translate(-57.919 -32.359)" fill="#85ce4e"/>
    <circle id="Ellipse_2855" data-name="Ellipse 2855" cx="1.922" cy="1.922" r="1.922" transform="translate(263.296 256.249)" fill="#fff"/>
    <path id="Path_67302" data-name="Path 67302" d="M414.491,291.861c0,2.61-3.911,6.766-5.259,8.121a.634.634,0,0,1-.9,0c-1.348-1.355-5.26-5.512-5.26-8.121a5.71,5.71,0,0,1,11.419,0Z" transform="translate(-102.646 -32.359)" fill="#85ce4e"/>
    <circle id="Ellipse_2856" data-name="Ellipse 2856" cx="1.922" cy="1.922" r="1.922" transform="translate(305.59 256.249)" fill="#fff"/>
    <path id="Path_67303" data-name="Path 67303" d="M365.639,353.514l-14.1,14.774-13.854-14.536a.263.263,0,0,1,.064-.415,58.03,58.03,0,0,0,7.4-4.636,47.436,47.436,0,0,0,6.621-6.435,45.074,45.074,0,0,0,6.97,6.885,47.53,47.53,0,0,0,6.828,3.942A.264.264,0,0,1,365.639,353.514Z" transform="translate(-68.999 -61.2)" fill="#85ce4e"/>
    <path id="Path_67304" data-name="Path 67304" d="M288.994,223.194s2.822,9.592,5.447,11.7" transform="translate(-44.012)" fill="none" stroke="#000" stroke-miterlimit="10" stroke-width="6"/>
    <path id="Path_67305" data-name="Path 67305" d="M443.221,223.194s-2.822,9.592-5.447,11.7" transform="translate(-120.482)" fill="none" stroke="#000" stroke-miterlimit="10" stroke-width="6"/>
  </g>
</svg>
